<svg xmlns="http://www.w3.org/2000/svg" viewBox="0 0 266.16 194.43"><defs><style>.cls-1{stroke-miterlimit:10;stroke-width:10px;isolation:isolate;}</style></defs><g id="Layer_2" data-name="Layer 2"><g id="Layer_1-2" data-name="Layer 1"><path class="cls-1" d="M244.55,111.77H199a17.76,17.76,0,0,0-15.25,8.66l-36.21,60.8a16.8,16.8,0,0,1-28.87,0l-36.2-60.8a17.76,17.76,0,0,0-15.25-8.66H21.6A16.59,16.59,0,0,1,7.24,86.89l42.49-73.6a16.59,16.59,0,0,1,28.73,0L80,15.94l38.38,66.48h0l1.16,2,.89,1.49a14.78,14.78,0,0,0,25.4,0l.65-1.09,1.4-2.35h0l38.38-66.48,1.53-2.65a16.58,16.58,0,0,1,28.72,0l42.49,73.6A16.58,16.58,0,0,1,244.55,111.77Z"/></g></g></svg>